<svg width="109" height="230" viewBox="0 0 109 230" fill="none" xmlns="http://www.w3.org/2000/svg">
<g clip-path="url(#clip0)">
<path d="M25.3477 30.9609H22.1448C21.6099 30.9609 21.1747 30.5258 21.1747 29.9908V22.7667H19.3061C18.7711 22.7667 18.3359 22.3313 18.3359 21.7965V18.701C18.3359 18.166 18.7711 17.7308 19.3061 17.7308H21.1747V16.1807C21.1747 14.6436 21.6573 13.336 22.5703 12.3992C23.4873 11.4582 24.7689 10.9609 26.2765 10.9609L28.7191 10.9649C29.2531 10.9658 29.6876 11.401 29.6876 11.9351V14.8092C29.6876 15.3442 29.2525 15.7794 28.7177 15.7794L27.0731 15.78C26.5716 15.78 26.4438 15.8805 26.4165 15.9113C26.3715 15.9625 26.318 16.107 26.318 16.506V17.7307H28.5941C28.7655 17.7307 28.9315 17.7729 29.0742 17.8526C29.3819 18.0245 29.5733 18.3497 29.5733 18.7011L29.5721 21.7967C29.5721 22.3313 29.1369 22.7665 28.6019 22.7665H26.318V29.9908C26.318 30.5258 25.8826 30.9609 25.3477 30.9609ZM22.3472 29.7885H25.1453V22.2418C25.1453 21.8846 25.436 21.594 25.7931 21.594H28.3996L28.4006 18.9033H25.7929C25.4359 18.9033 25.1453 18.6128 25.1453 18.2556V16.506C25.1453 16.0479 25.1919 15.527 25.5376 15.1354C25.9554 14.6621 26.6138 14.6075 27.0728 14.6075L28.5151 14.6069V12.1371L26.2755 12.1334C23.8528 12.1334 22.3472 13.6843 22.3472 16.1807V18.2556C22.3472 18.6126 22.0566 18.9033 21.6996 18.9033H19.5084V21.594H21.6996C22.0566 21.594 22.3472 21.8846 22.3472 22.2418V29.7885ZM28.7168 12.1374H28.7169H28.7168Z" fill="white"/>
</g>
<g clip-path="url(#clip1)">
<path d="M22.2282 84.3999C22.6432 84.1912 22.957 83.9587 23.172 83.7074C23.5545 83.2549 23.7433 82.6548 23.7433 81.911C23.7433 81.1872 23.5545 80.5684 23.177 80.0496C22.547 79.2045 21.4806 78.772 19.973 78.7495H14V90.9417H19.5692C20.1968 90.9417 20.7781 90.888 21.3156 90.778C21.8531 90.6667 22.3182 90.4629 22.712 90.1654C23.062 89.9066 23.3545 89.5854 23.587 89.2066C23.9546 88.634 24.1383 87.9852 24.1383 87.2627C24.1383 86.5626 23.9771 85.9663 23.657 85.4763C23.3333 84.9862 22.8582 84.6275 22.2282 84.3999ZM16.464 80.8672H19.1542C19.7455 80.8672 20.233 80.9309 20.6155 81.0572C21.0581 81.2409 21.2793 81.6147 21.2793 82.1848C21.2793 82.6961 21.1106 83.0536 20.7768 83.2549C20.4405 83.4561 20.0042 83.5574 19.4692 83.5574H16.464V80.8672ZM20.7181 88.6115C20.4205 88.7553 20.0017 88.8266 19.4654 88.8266H16.464V85.575H19.5067C20.0367 85.5788 20.4493 85.6488 20.7443 85.7801C21.2693 86.0176 21.5306 86.4526 21.5306 87.0889C21.5306 87.839 21.2606 88.344 20.7181 88.6115Z" fill="white"/>
<path d="M32.0777 79.3183H26.781V80.8359H32.0777V79.3183Z" fill="white"/>
<path d="M33.9179 85.3075C33.8079 84.6012 33.5654 83.9799 33.1878 83.4436C32.774 82.836 32.249 82.391 31.6102 82.1097C30.9739 81.8272 30.2576 81.686 29.46 81.6872C28.1212 81.6872 27.0336 82.106 26.1923 82.9373C25.3534 83.7711 24.9334 84.97 24.9334 86.5326C24.9334 88.199 25.3972 89.4028 26.3298 90.1416C27.2586 90.8817 28.3312 91.2505 29.5488 91.2505C31.0226 91.2505 32.169 90.8117 32.9878 89.9366C33.5116 89.3841 33.8079 88.8403 33.8729 88.3065H31.4327C31.2914 88.5703 31.1277 88.7765 30.9401 88.9265C30.6001 89.2016 30.1576 89.3391 29.615 89.3391C29.0987 89.3391 28.6612 89.2253 28.2962 88.999C27.6936 88.6365 27.3786 88.0015 27.3386 87.0976H33.9979C34.0079 86.3188 33.9829 85.72 33.9179 85.3075ZM27.3986 85.5413C27.4861 84.955 27.6986 84.4899 28.0362 84.1462C28.3737 83.8036 28.8512 83.6311 29.4625 83.6299C30.0263 83.6299 30.4976 83.7911 30.8814 84.1149C31.2602 84.4412 31.4739 84.915 31.5177 85.5413H27.3986Z" fill="white"/>
</g>
<g clip-path="url(#clip2)">
<path d="M94 15.0221C92.7419 15.0801 92.7694 15.0753 92.6272 15.0872L93.3723 12.9594C93.3723 12.9594 91.0465 13.815 90.4569 13.968C88.9084 12.5762 86.6068 12.5148 84.9613 13.5261C83.6138 14.3545 82.8905 15.7771 83.1318 17.4398C80.5092 17.0759 78.2996 15.8328 76.5551 13.7371L76.0033 13.0744L75.591 13.8316C75.0699 14.7883 74.8969 15.8822 75.1037 16.9117C75.1885 17.3341 75.3327 17.7369 75.5324 18.1141L75.0591 17.9307L75.003 18.7216C74.946 19.5249 75.2135 20.4628 75.7186 21.23C75.8608 21.446 76.0439 21.6833 76.276 21.9174L76.0314 21.8798L76.3299 22.7861C76.7222 23.9767 77.537 24.8979 78.5944 25.41C77.5384 25.8581 76.6852 26.1441 75.283 26.6053L74 27.0271L75.185 27.675C75.6368 27.922 77.2333 28.7471 78.8108 28.9946C82.3173 29.5445 86.2652 29.0966 88.9229 26.703C91.1616 24.6868 91.8961 21.819 91.7435 18.8345C91.7205 18.3827 91.8442 17.9515 92.092 17.6205C92.5884 16.9578 93.9969 15.0265 94 15.0221ZM91.155 16.9186C90.7435 17.4681 90.5373 18.1698 90.5742 18.8943C90.7282 21.9047 89.9091 24.2393 88.1396 25.8329C86.0724 27.6947 82.7383 28.4254 78.9922 27.8378C78.3138 27.7314 77.6127 27.4932 77.0324 27.2554C78.2081 26.8508 79.116 26.4903 80.5822 25.7963L82.629 24.8275L80.3692 24.6829C79.2867 24.6136 78.3854 24.089 77.8313 23.2373C78.1255 23.2202 78.4092 23.1726 78.6916 23.0938L80.8469 22.4935L78.6736 21.9613C77.6176 21.7027 77.0156 21.0708 76.6965 20.5862C76.487 20.2677 76.3502 19.9415 76.2681 19.6408C76.486 19.6992 76.74 19.7409 77.1497 19.7814L79.1613 19.9804L77.5675 18.7371C76.4191 17.8414 75.9589 16.4958 76.2963 15.2021C79.8803 18.9195 84.0883 18.6401 84.5119 18.7384C84.4187 17.8327 84.4163 17.8306 84.3918 17.7444C83.8494 15.8268 85.0382 14.8532 85.5744 14.5236C86.6944 13.8353 88.4722 13.7315 89.7036 14.8655C89.9695 15.1103 90.3292 15.2066 90.6658 15.1229C90.9679 15.0479 91.2159 14.9684 91.4586 14.8819L90.9533 16.325L91.5984 16.3255C91.4767 16.4888 91.3306 16.6842 91.155 16.9186Z" fill="white"/>
</g>
<g clip-path="url(#clip3)">
<path d="M84 93.9989C79.0372 93.9989 75 89.9614 75 84.9995C75 80.0386 79.0372 76.0011 84 76.0011C88.9627 76.0011 93 80.0386 93 84.9995C93 89.9614 88.9627 93.9989 84 93.9989ZM91.1927 86.1672C90.9437 86.0896 88.9379 85.4904 86.6553 85.8555C87.6081 88.4733 87.996 90.607 88.0704 91.0492C89.7046 89.9442 90.8684 88.1942 91.1927 86.1672ZM86.8461 91.7166C86.737 91.0776 86.3141 88.8498 85.2913 86.1928C85.2759 86.1981 85.2599 86.2028 85.2433 86.2088C81.1349 87.6394 79.6599 90.4902 79.5286 90.7581C80.7633 91.7207 82.316 92.2954 84 92.2954C85.0088 92.2954 85.9712 92.0885 86.8461 91.7166ZM78.5879 89.8814C78.7527 89.5987 80.7523 86.2887 84.5092 85.0743C84.6043 85.0434 84.7 85.015 84.796 84.9883C84.6135 84.5737 84.4146 84.1605 84.2055 83.7515C80.5677 84.8404 77.0376 84.7954 76.7184 84.7883C76.7163 84.8624 76.7151 84.9367 76.7151 85.0108C76.7151 86.8821 77.4243 88.5901 78.5879 89.8814ZM76.8689 83.5192C77.195 83.5233 80.1961 83.5358 83.6038 82.6318C82.397 80.4858 81.095 78.6817 80.9026 78.4192C78.8647 79.38 77.3411 81.2587 76.8689 83.5192ZM82.2929 77.9299C82.4944 78.1992 83.8174 80.0006 85.0112 82.1941C87.6021 81.222 88.6981 79.7493 88.8288 79.5632C87.5426 78.421 85.8508 77.7277 83.9999 77.7277C83.412 77.7277 82.8406 77.7977 82.2929 77.9299ZM89.6388 80.4046C89.4856 80.6127 88.2642 82.1775 85.571 83.2761C85.7406 83.6241 85.9029 83.9773 86.0547 84.3319C86.1078 84.4581 86.1602 84.5832 86.2112 84.7077C88.6352 84.403 91.0436 84.8911 91.2846 84.9427C91.2682 83.2234 90.6539 81.6446 89.6388 80.4046Z" fill="white"/>
</g>
<g clip-path="url(#clip4)">
<path d="M18.7098 148.01L27.3095 139.411C27.8565 138.863 28.7435 138.863 29.2903 139.411C29.8371 139.958 29.8371 140.844 29.2903 141.391L21.6809 149L29.29 156.609C29.8369 157.156 29.8369 158.043 29.29 158.59C28.7432 159.137 27.8563 159.137 27.3093 158.59L18.7096 149.99C18.4362 149.717 18.2996 149.359 18.2996 149C18.2996 148.642 18.4364 148.284 18.7098 148.01Z" fill="black"/>
</g>
<g clip-path="url(#clip5)">
<path d="M89.2902 149.99L80.6905 158.589C80.1435 159.137 79.2565 159.137 78.7097 158.589C78.1629 158.042 78.1629 157.156 78.7097 156.609L86.3191 149L78.71 141.391C78.1631 140.844 78.1631 139.957 78.71 139.41C79.2568 138.863 80.1437 138.863 80.6907 139.41L89.2904 148.01C89.5638 148.283 89.7004 148.641 89.7004 149C89.7004 149.358 89.5636 149.716 89.2902 149.99Z" fill="black"/>
</g>
<path d="M19.4102 202.506L28.0099 193.433C28.5569 192.856 29.4439 192.856 29.9906 193.433C30.5375 194.01 30.5375 194.946 29.9906 195.523L22.3812 203.551L29.9904 211.578C30.5372 212.155 30.5372 213.091 29.9904 213.668C29.4436 214.245 28.5567 214.245 28.0097 213.668L19.41 204.595C19.1365 204.307 19 203.929 19 203.551C19 203.172 19.1368 202.794 19.4102 202.506Z" fill="white"/>
<g clip-path="url(#clip6)">
<path d="M89.2902 204.99L80.6905 213.589C80.1435 214.137 79.2565 214.137 78.7097 213.589C78.1629 213.042 78.1629 212.156 78.7097 211.609L86.3191 204L78.71 196.391C78.1631 195.844 78.1631 194.957 78.71 194.41C79.2568 193.863 80.1437 193.863 80.6907 194.41L89.2904 203.01C89.5638 203.283 89.7004 203.641 89.7004 204C89.7004 204.358 89.5636 204.716 89.2902 204.99Z" fill="white"/>
</g>
<defs>
<clipPath id="clip0">
<rect x="14" y="11" width="20" height="20" fill="white"/>
</clipPath>
<clipPath id="clip1">
<rect x="14" y="75" width="20" height="20" fill="white"/>
</clipPath>
<clipPath id="clip2">
<rect x="74" y="11" width="20" height="20" fill="white"/>
</clipPath>
<clipPath id="clip3">
<rect x="75" y="76" width="18" height="18" fill="white"/>
</clipPath>
<clipPath id="clip4">
<rect x="34" y="159" width="20" height="20" transform="rotate(180 34 159)" fill="white"/>
</clipPath>
<clipPath id="clip5">
<rect x="74" y="139" width="20" height="20" fill="white"/>
</clipPath>
<clipPath id="clip6">
<rect x="74" y="194" width="20" height="20" fill="white"/>
</clipPath>
</defs>
</svg>
