<?xml version="1.0"?>
<svg xmlns="http://www.w3.org/2000/svg" xmlns:xlink="http://www.w3.org/1999/xlink" version="1.1" id="Layer_1" x="0px" y="0px" viewBox="0 0 297 297" style="enable-background:new 0 0 297 297;" xml:space="preserve" width="512px" height="512px"><g><g>
	<g>
		<g>
			<path d="M278.045,0h-64.772c-4.506,0-8.16,3.654-8.16,8.16v56.612h81.092V8.16C286.205,3.654,282.551,0,278.045,0z" data-original="#000000" class="active-path" data-old_color="#000000" fill="#FFFFFF"/>
			<path d="M205.112,159.295c0,15.301-6.009,29.636-16.919,40.366c-10.908,10.727-25.399,16.504-40.664,16.238     c-30.681-0.512-55.641-26.382-55.641-57.67V81.093H10.795v78.202C10.795,235.226,72.569,297,148.5,297     s137.705-61.774,137.705-137.705V81.093h-81.093V159.295z" data-original="#000000" class="active-path" data-old_color="#000000" fill="#FFFFFF"/>
			<path d="M91.888,8.16c0-4.506-3.654-8.16-8.16-8.16H18.955c-4.506,0-8.16,3.654-8.16,8.16v56.612h81.093V8.16z" data-original="#000000" class="active-path" data-old_color="#000000" fill="#FFFFFF"/>
		</g>
	</g>
</g></g> </svg>
