<svg enable-background="new 0 0 100 100" height="512" viewBox="0 0 100 100" width="512" xmlns="http://www.w3.org/2000/svg"><circle cx="50" cy="50" fill="#e6e7e8" r="45"/><path d="m88.4902496 65.5729752c1.9538574-4.8168411 3.0393829-10.0784912 3.0393829-15.5964279 0-5.5226936-1.0872803-10.7888794-3.0442581-15.6088867l-34.0308418 15.60186z" fill="#d49145"/><path d="m51.8563347 47.0760651 35.0775642-16.0815735c-6.6273651-12.8686142-19.7719803-21.8270187-35.0775642-22.5007z" fill="#4388b9"/><path d="m48.1437225 49.2081451v-40.7143535c-22.0740699.9718876-39.6733551 19.1690006-39.6733551 41.4827556 0 10.800209 4.1249123 20.6353302 10.8824081 28.0218048z" fill="#304651"/><path d="m50.4043961 52.1972275-28.4266873 28.4260635c7.3865376 6.7578888 17.221941 10.8829193 28.0223179 10.8829193 16.0989113 0 30.0478401-9.1666489 36.9398232-22.5593948z" fill="#cd5148"/><g fill="#485f69"><path d="m48.1406174 15.330843v2.4168777h-24.3271218c1.0520496-.8607445 2.1562119-1.6692715 3.295187-2.4168777z"/><path d="m48.1406174 22.9559155v2.4255791h-31.604393c.6086235-.8346348 1.2520065-1.6431618 1.9214439-2.4255791z"/><path d="m48.1406174 30.5894775v2.4170876h-36.0559607c.3651533-.8172264.7564144-1.6257553 1.182436-2.4170876z"/><path d="m48.1406174 38.2232513v2.4170914h-38.620842c.1912537-.8172302.3999653-1.6259689.643383-2.4170914z"/><path d="m48.1406174 45.8483238v2.4257927h-39.6380806c.0347595-.8172302.0869236-1.6257553.1651974-2.4257927z"/><path d="m43.8629532 53.4820976-2.4170914 2.4170914h-32.5607662c-.1130323-.8000374-.2000084-1.5998611-.2695265-2.4170914z"/><path d="m36.2291794 61.1158714-2.417038 2.4170914h-23.0664682c-.2868795-.7913322-.5303497-1.5998611-.7564144-2.4170914z"/><path d="m28.6128616 68.7409439-2.4257927 2.4255829h-11.9114408c-.4694824-.7911224-.9129095-1.5996475-1.3302269-2.4255829z"/></g></svg>