<svg width="60" height="20" viewBox="0 0 60 20" fill="none" xmlns="http://www.w3.org/2000/svg">
<path d="M13.375 1H6.625C3.51888 1 1 3.51888 1 6.625V13.375C1 16.4811 3.51888 19 6.625 19H13.375C16.4811 19 19 16.4811 19 13.375V6.625C19 3.51888 16.4811 1 13.375 1ZM17.3125 13.375C17.3125 15.5462 15.5462 17.3125 13.375 17.3125H6.625C4.45375 17.3125 2.6875 15.5462 2.6875 13.375V6.625C2.6875 4.45375 4.45375 2.6875 6.625 2.6875H13.375C15.5462 2.6875 17.3125 4.45375 17.3125 6.625V13.375Z" fill="#8D8D8D"/>
<path d="M10 5.5C7.51487 5.5 5.5 7.51487 5.5 10C5.5 12.4851 7.51487 14.5 10 14.5C12.4851 14.5 14.5 12.4851 14.5 10C14.5 7.51487 12.4851 5.5 10 5.5ZM10 12.8125C8.44975 12.8125 7.1875 11.5503 7.1875 10C7.1875 8.44863 8.44975 7.1875 10 7.1875C11.5503 7.1875 12.8125 8.44863 12.8125 10C12.8125 11.5503 11.5503 12.8125 10 12.8125Z" fill="#8D8D8D"/>
<path d="M14.8375 5.76211C15.1686 5.76211 15.4371 5.49365 15.4371 5.16249C15.4371 4.83133 15.1686 4.56287 14.8375 4.56287C14.5063 4.56287 14.2379 4.83133 14.2379 5.16249C14.2379 5.49365 14.5063 5.76211 14.8375 5.76211Z" fill="#8D8D8D"/>
<g clip-path="url(#clip0)">
<path d="M31.3477 19.9609H28.1448C27.6099 19.9609 27.1747 19.5258 27.1747 18.9908V11.7667H25.3061C24.7711 11.7667 24.3359 11.3313 24.3359 10.7965V7.70096C24.3359 7.16599 24.7711 6.7308 25.3061 6.7308H27.1747V5.18066C27.1747 3.64365 27.6573 2.33597 28.5703 1.39923C29.4873 0.458221 30.7689 -0.0390625 32.2765 -0.0390625L34.7191 -0.0350952C35.2531 -0.0341797 35.6876 0.401001 35.6876 0.935059V3.8092C35.6876 4.34418 35.2525 4.77936 34.7177 4.77936L33.0731 4.77997C32.5716 4.77997 32.4438 4.88052 32.4165 4.91135C32.3715 4.96246 32.318 5.10696 32.318 5.50598V6.73065H34.5941C34.7655 6.73065 34.9315 6.77292 35.0742 6.85257C35.3819 7.02454 35.5733 7.3497 35.5733 7.70111L35.5721 10.7967C35.5721 11.3313 35.1369 11.7665 34.6019 11.7665H32.318V18.9908C32.318 19.5258 31.8826 19.9609 31.3477 19.9609V19.9609ZM28.3472 18.7885H31.1453V11.2418C31.1453 10.8846 31.436 10.594 31.7931 10.594H34.3996L34.4006 7.90329H31.7929C31.4359 7.90329 31.1453 7.61276 31.1453 7.25555V5.50598C31.1453 5.04791 31.1919 4.52698 31.5376 4.13544C31.9554 3.66211 32.6138 3.60748 33.0728 3.60748L34.5151 3.60687V1.13708L32.2755 1.13342C29.8528 1.13342 28.3472 2.68433 28.3472 5.18066V7.25555C28.3472 7.61261 28.0566 7.90329 27.6996 7.90329H25.5084V10.594H27.6996C28.0566 10.594 28.3472 10.8846 28.3472 11.2418V18.7885ZM34.7168 1.13739H34.7169H34.7168Z" fill="#8D8D8D"/>
</g>
<g clip-path="url(#clip1)">
<path d="M59 4.02208C57.7419 4.08006 57.7694 4.07533 57.6272 4.08724L58.3723 1.9594C58.3723 1.9594 56.0465 2.81496 55.4569 2.968C53.9084 1.57625 51.6068 1.51476 49.9613 2.52611C48.6138 3.35451 47.8905 4.77709 48.1318 6.43984C45.5092 6.07591 43.2996 4.83278 41.5551 2.73714L41.0033 2.07445L40.591 2.83159C40.0699 3.78832 39.8969 4.88222 40.1037 5.91173C40.1885 6.33409 40.3327 6.73692 40.5324 7.11412L40.0591 6.93071L40.003 7.72157C39.946 8.52495 40.2135 9.46275 40.7186 10.23C40.8608 10.446 41.0439 10.6833 41.276 10.9174L41.0314 10.8798L41.3299 11.7861C41.7222 12.9767 42.537 13.8979 43.5944 14.41C42.5384 14.8581 41.6852 15.1441 40.283 15.6053L39 16.0271L40.185 16.675C40.6368 16.922 42.2333 17.7471 43.8108 17.9946C47.3173 18.5445 51.2652 18.0966 53.9229 15.703C56.1616 13.6868 56.8961 10.819 56.7435 7.83449C56.7205 7.38268 56.8442 6.95146 57.092 6.6205C57.5884 5.95781 58.9969 4.02651 59 4.02208V4.02208ZM56.155 5.91859C55.7435 6.46806 55.5373 7.16982 55.5742 7.8943C55.7282 10.9047 54.9091 13.2393 53.1396 14.8329C51.0724 16.6947 47.7383 17.4254 43.9922 16.8378C43.3138 16.7314 42.6127 16.4932 42.0324 16.2554C43.2081 15.8508 44.116 15.4903 45.5822 14.7963L47.629 13.8275L45.3692 13.6829C44.2867 13.6136 43.3854 13.089 42.8313 12.2373C43.1255 12.2202 43.4092 12.1726 43.6916 12.0938L45.8469 11.4935L43.6736 10.9613C42.6176 10.7027 42.0156 10.0708 41.6965 9.5862C41.487 9.26775 41.3502 8.94151 41.2681 8.64076C41.486 8.6992 41.74 8.74086 42.1497 8.78145L44.1613 8.98042L42.5675 7.73714C41.4191 6.84145 40.9589 5.49577 41.2963 4.20213C44.8803 7.91948 49.0883 7.64009 49.5119 7.73836C49.4187 6.83275 49.4163 6.83061 49.3918 6.7444C48.8494 4.82683 50.0382 3.85317 50.5744 3.52358C51.6944 2.83525 53.4722 2.73149 54.7036 3.86552C54.9695 4.11028 55.3292 4.20656 55.6658 4.12294C55.9679 4.04787 56.2159 3.96837 56.4586 3.88185L55.9533 5.32503L56.5984 5.32549C56.4767 5.48875 56.3306 5.68422 56.155 5.91859Z" fill="#8D8D8D"/>
</g>
<defs>
<clipPath id="clip0">
<rect x="20" width="20" height="20" fill="white"/>
</clipPath>
<clipPath id="clip1">
<rect x="39" width="20" height="20" fill="white"/>
</clipPath>
</defs>
</svg>
