<?xml version="1.0" encoding="iso-8859-1"?>
<!-- Generator: Adobe Illustrator 19.0.0, SVG Export Plug-In . SVG Version: 6.00 Build 0)  -->
<svg version="1.1" id="Capa_1" xmlns="http://www.w3.org/2000/svg" xmlns:xlink="http://www.w3.org/1999/xlink" x="0px" y="0px"
	 viewBox="0 0 479.832 479.832" style="enable-background:new 0 0 479.832 479.832;" xml:space="preserve">
<g>
	<g>
		<path d="M308.715,153.629c-10.128-47.296-36.856-82.568-73.6-97.016C161.803,27.789,68.843,87.421,27.971,189.533
			C16.859,216.95,10.46,246.048,9.043,275.597C-2.123,376.602,70.706,467.535,171.711,478.702s191.938-61.662,203.104-162.667
			C381.65,254.206,356.784,193.111,308.715,153.629z M323.335,400.37c-31.86,40.054-80.24,63.402-131.42,63.42
			c-92.74-0.106-167.894-75.26-168-168c0.015-6.337,0.373-12.669,1.072-18.968c1.312-27.927,7.344-55.431,17.84-81.344
			c31.408-78.488,94.904-130.208,152.936-130.208c11.434-0.043,22.774,2.071,33.424,6.232c32.8,12.896,55.696,44.184,64.384,88.112
			c0.37,1.855,1.384,3.518,2.864,4.696C369.05,222.067,381.093,327.755,323.335,400.37z"/>
	</g>
</g>
<g>
	<g>
		<path d="M151.915,103.789c-22.091,0-40,17.909-40,40c0.026,22.08,17.92,39.974,40,40c22.091,0,40-17.909,40-40
			S174.007,103.789,151.915,103.789z M151.915,167.789c-13.255,0-24-10.745-24-24s10.745-24,24-24s24,10.745,24,24
			S165.17,167.789,151.915,167.789z"/>
	</g>
</g>
<g>
	<g>
		<path d="M271.915,327.789c-22.091,0-40,17.909-40,40c0,22.091,17.909,40,40,40c22.091,0,40-17.909,40-40
			C311.889,345.709,293.996,327.816,271.915,327.789z M271.915,391.789c-13.255,0-24-10.745-24-24s10.745-24,24-24s24,10.745,24,24
			S285.17,391.789,271.915,391.789z"/>
	</g>
</g>
<g>
	<g>
		<path d="M191.915,367.789c-22.091,0-40,17.909-40,40c0,22.091,17.909,40,40,40s40-17.909,40-40
			C231.889,385.709,213.996,367.816,191.915,367.789z M191.915,431.789c-13.255,0-24-10.745-24-24s10.745-24,24-24s24,10.745,24,24
			S205.17,431.789,191.915,431.789z"/>
	</g>
</g>
<g>
	<g>
		<path d="M103.915,327.789c-22.091,0-40,17.909-40,40c0,22.091,17.909,40,40,40s40-17.909,40-40
			C143.889,345.709,125.996,327.816,103.915,327.789z M103.915,391.789c-13.255,0-24-10.745-24-24s10.745-24,24-24s24,10.745,24,24
			S117.17,391.789,103.915,391.789z"/>
	</g>
</g>
<g>
	<g>
		<path d="M71.915,247.789c-22.091,0-40,17.909-40,40c0,22.091,17.909,40,40,40c22.08-0.026,39.974-17.92,40-40
			C111.915,265.698,94.007,247.789,71.915,247.789z M71.915,311.789c-13.255,0-24-10.745-24-24s10.745-24,24-24s24,10.745,24,24
			S85.17,311.789,71.915,311.789z"/>
	</g>
</g>
<g>
	<g>
		<path d="M471.915,90.077c0-27-37.208-80.8-41.456-86.88c-2.816-3.614-8.029-4.261-11.643-1.445
			c-0.539,0.42-1.025,0.906-1.445,1.445c-4.248,6.048-41.456,59.88-41.456,86.88c-0.176,15.622,6.143,30.616,17.448,41.4
			c-0.927,1.317-1.432,2.885-1.448,4.496l8,336c0.1,4.346,3.653,7.817,8,7.816h32c4.347,0.001,7.9-3.47,8-7.816l8-336
			c-0.016-1.611-0.521-3.179-1.448-4.496C465.772,120.694,472.092,105.7,471.915,90.077z M432.099,463.789h-16.368l-6.856-288h30.08
			L432.099,463.789z M439.339,159.789h-30.848l-0.384-16h31.616L439.339,159.789z M423.915,127.789c-17.648,0-32-16.912-32-37.712
			c0-15.528,19.352-48.552,32-67.968c12.648,19.408,32,52.424,32,68C455.915,110.877,441.563,127.789,423.915,127.789z"/>
	</g>
</g>
<g>
</g>
<g>
</g>
<g>
</g>
<g>
</g>
<g>
</g>
<g>
</g>
<g>
</g>
<g>
</g>
<g>
</g>
<g>
</g>
<g>
</g>
<g>
</g>
<g>
</g>
<g>
</g>
<g>
</g>
</svg>
