<svg width="400" height="400" viewBox="0 0 400 400" fill="none" xmlns="http://www.w3.org/2000/svg">
<path d="M48.1005 41.4307L29.2428 58.1996C28.0432 59.2668 26.0983 59.2668 24.8993 58.1996C23.7002 57.1333 23.7002 55.4038 24.8993 54.3376L41.5855 39.4997L24.8998 24.6624C23.7007 23.5956 23.7007 21.8664 24.8998 20.8001C26.0989 19.7333 28.0437 19.7333 29.2433 20.8001L48.101 37.5692C48.7006 38.1026 49 38.8009 49 39.4996C49 40.1987 48.7 40.8975 48.1005 41.4307Z" fill="white"/>
<path d="M97.2845 21.0081L92.7273 21C87.6074 21 84.2987 24.7672 84.2987 30.598V35.0233H79.7166C79.3206 35.0233 79 35.3795 79 35.8189V42.2306C79 42.67 79.321 43.0259 79.7166 43.0259H84.2987V59.2048C84.2987 59.6442 84.6193 60 85.0153 60H90.9936C91.3895 60 91.7102 59.6438 91.7102 59.2048V43.0259H97.0677C97.4637 43.0259 97.7843 42.67 97.7843 42.2306L97.7865 35.8189C97.7865 35.6079 97.7108 35.4059 97.5766 35.2565C97.4425 35.1072 97.2597 35.0233 97.0695 35.0233H91.7102V31.2719C91.7102 29.4688 92.0973 28.5535 94.2138 28.5535L97.2838 28.5523C97.6794 28.5523 98 28.196 98 27.757V21.8033C98 21.3648 97.6797 21.0089 97.2845 21.0081Z" fill="#23599B"/>
<path d="M147.5 59C158.27 59 167 50.2696 167 39.5C167 28.7304 158.27 20 147.5 20C136.73 20 128 28.7304 128 39.5C128 50.2696 136.73 59 147.5 59Z" fill="#DC4E41"/>
<path d="M134.789 40.3728C134.72 43.7279 137.031 46.9297 140.21 47.9739C143.204 48.9799 146.885 48.2273 148.878 45.6631C150.333 43.8663 150.663 41.4709 150.506 39.233C147.941 39.2101 145.377 39.2177 142.817 39.2216C142.813 40.1351 142.817 41.0451 142.821 41.9586C144.356 42.001 145.892 41.9816 147.427 42.0125C147.039 43.3407 146.156 44.5768 144.816 45.0565C142.229 46.1966 138.928 44.7071 138.114 41.993C137.131 39.394 138.74 36.2575 141.396 35.5015C143.043 34.922 144.74 35.5745 146.149 36.4306C146.863 35.7625 147.531 35.0486 148.187 34.3269C146.586 32.9873 144.529 32.1659 142.413 32.3463C138.263 32.3956 134.632 36.2269 134.789 40.3728Z" fill="#DC4E41"/>
<path d="M155.496 36.9176C155.489 37.6817 155.481 38.4495 155.477 39.2132C154.709 39.2209 153.945 39.2247 153.181 39.2285C153.181 39.9926 153.181 40.7524 153.181 41.5165C153.945 41.5203 154.713 41.5241 155.477 41.5321C155.485 42.2961 155.485 43.0598 155.492 43.8277C156.252 43.8277 157.016 43.8239 157.78 43.8277C157.784 43.0598 157.788 42.2961 157.796 41.5283C158.559 41.5245 159.327 41.5206 160.091 41.5168C160.091 40.7528 160.091 39.9929 160.091 39.2289C159.328 39.225 158.56 39.2212 157.796 39.2136C157.792 38.4495 157.784 37.6817 157.78 36.918C157.016 36.9176 156.256 36.9176 155.496 36.9176Z" fill="#DC4E41"/>
<path d="M134.789 40.3728C134.632 36.227 138.263 32.3956 142.413 32.3459C144.528 32.1655 146.586 32.9869 148.187 34.3266C147.53 35.0486 146.862 35.7622 146.149 36.4303C144.739 35.5741 143.043 34.9217 141.396 35.5011C138.739 36.2575 137.131 39.394 138.114 41.9927C138.928 44.7068 142.229 46.1963 144.816 45.0561C146.156 44.5764 147.039 43.3404 147.427 42.0122C145.891 41.9816 144.356 42.0007 142.82 41.9583C142.816 41.0448 142.813 40.1347 142.816 39.2212C145.377 39.2174 147.941 39.2098 150.505 39.2327C150.663 41.4709 150.333 43.8663 148.878 45.6627C146.885 48.227 143.204 48.9796 140.209 47.9736C137.031 46.9297 134.72 43.7279 134.789 40.3728Z" fill="white"/>
<path d="M155.496 36.9176C156.257 36.9176 157.016 36.9176 157.78 36.9176C157.784 37.6817 157.792 38.4495 157.796 39.2132C158.559 39.2209 159.327 39.2247 160.091 39.2285C160.091 39.9926 160.091 40.7524 160.091 41.5165C159.328 41.5203 158.56 41.5241 157.796 41.5279C157.788 42.2958 157.784 43.0595 157.78 43.8273C157.016 43.8235 156.252 43.8273 155.492 43.8273C155.485 43.0595 155.485 42.2958 155.477 41.5318C154.713 41.5238 153.945 41.5203 153.181 41.5161C153.181 40.7521 153.181 39.9922 153.181 39.2282C153.945 39.2243 154.709 39.2205 155.477 39.2129C155.481 38.4495 155.488 37.6817 155.496 36.9176Z" fill="white"/>
<path d="M223.812 20H209.188C202.458 20 197 25.4576 197 32.1875V46.8125C197 53.5424 202.458 59 209.188 59H223.812C230.542 59 236 53.5424 236 46.8125V32.1875C236 25.4576 230.542 20 223.812 20ZM232.344 46.8125C232.344 51.5169 228.517 55.3438 223.812 55.3438H209.188C204.483 55.3438 200.656 51.5169 200.656 46.8125V32.1875C200.656 27.4831 204.483 23.6562 209.188 23.6562H223.812C228.517 23.6562 232.344 27.4831 232.344 32.1875V46.8125Z" fill="#4C306E"/>
<path d="M216.5 29.75C211.116 29.75 206.75 34.1156 206.75 39.5C206.75 44.8844 211.116 49.25 216.5 49.25C221.884 49.25 226.25 44.8844 226.25 39.5C226.25 34.1156 221.884 29.75 216.5 29.75ZM216.5 45.5938C213.141 45.5938 210.406 42.8589 210.406 39.5C210.406 36.1387 213.141 33.4062 216.5 33.4062C219.859 33.4062 222.594 36.1387 222.594 39.5C222.594 42.8589 219.859 45.5938 216.5 45.5938Z" fill="#4C306E"/>
<path d="M226.981 30.3179C227.699 30.3179 228.28 29.7363 228.28 29.0188C228.28 28.3012 227.699 27.7196 226.981 27.7196C226.264 27.7196 225.682 28.3012 225.682 29.0188C225.682 29.7363 226.264 30.3179 226.981 30.3179Z" fill="#4C306E"/>
<path d="M73.7348 117.093C73.6743 116.956 73.6178 116.842 73.5654 116.751C72.6979 115.108 71.0402 113.091 68.5931 110.7L68.5414 110.646L68.5155 110.619L68.4894 110.591H68.4631C67.3525 109.478 66.6492 108.729 66.3547 108.346C65.8158 107.616 65.6951 106.877 65.9896 106.128C66.1977 105.562 66.9793 104.368 68.3326 102.542C69.0445 101.575 69.6082 100.799 70.0246 100.215C73.0273 96.0172 74.3291 93.3346 73.9297 92.1664L73.7746 91.8934C73.6704 91.729 73.4014 91.5787 72.968 91.4416C72.5336 91.3047 71.9784 91.2821 71.3014 91.3733L63.8041 91.4277C63.6827 91.3825 63.5092 91.3867 63.2833 91.4416C63.0576 91.4964 62.9447 91.5239 62.9447 91.5239L62.8142 91.5925L62.7107 91.6749C62.6239 91.7293 62.5284 91.8251 62.4242 91.962C62.3205 92.0985 62.2338 92.2586 62.1645 92.4411C61.3482 94.6495 60.4202 96.7028 59.3786 98.6008C58.7364 99.7326 58.1467 100.713 57.6081 101.544C57.0702 102.374 56.6189 102.986 56.2548 103.378C55.89 103.77 55.5609 104.085 55.2653 104.322C54.9701 104.56 54.7448 104.66 54.5888 104.624C54.4324 104.587 54.2852 104.55 54.1458 104.514C53.9029 104.35 53.7076 104.126 53.5604 103.843C53.4125 103.56 53.3129 103.204 53.2608 102.775C53.209 102.346 53.1784 101.977 53.1697 101.667C53.1615 101.357 53.1653 100.918 53.1829 100.352C53.2009 99.7864 53.209 99.4034 53.209 99.2026C53.209 98.5089 53.2219 97.7561 53.2477 96.9439C53.274 96.1318 53.2952 95.4882 53.313 95.0142C53.3307 94.5396 53.3389 94.0375 53.3389 93.5082C53.3389 92.9789 53.3083 92.5638 53.2477 92.2626C53.1879 91.9617 53.0961 91.6696 52.9751 91.3864C52.8533 91.1035 52.6752 90.8847 52.4414 90.7294C52.2071 90.5742 51.9159 90.4511 51.5693 90.3596C50.6494 90.1407 49.478 90.0223 48.0546 90.0039C44.8267 89.9675 42.7526 90.1867 41.8327 90.6612C41.4683 90.8617 41.1385 91.1357 40.8436 91.4822C40.5311 91.8839 40.4876 92.1031 40.7131 92.1391C41.7546 92.3032 42.4919 92.6957 42.9258 93.3162L43.0822 93.645C43.2038 93.8822 43.3253 94.3022 43.4468 94.9044C43.5682 95.5066 43.6465 96.1727 43.681 96.9024C43.7676 98.235 43.7676 99.3757 43.681 100.325C43.5941 101.274 43.512 102.013 43.4337 102.542C43.3554 103.072 43.2383 103.5 43.0822 103.829C42.9258 104.157 42.8218 104.358 42.7696 104.431C42.7176 104.504 42.6742 104.55 42.6397 104.568C42.4141 104.659 42.1795 104.705 41.9367 104.705C41.6935 104.705 41.3986 104.577 41.0516 104.322C40.7047 104.066 40.3446 103.715 39.9714 103.267C39.5982 102.82 39.1773 102.195 38.7085 101.392C38.2401 100.589 37.7541 99.6401 37.2508 98.5451L36.8344 97.7509C36.5741 97.24 36.2185 96.4961 35.7672 95.5199C35.3157 94.5433 34.9166 93.5986 34.5696 92.686C34.4309 92.3027 34.2226 92.0109 33.9449 91.8101L33.8146 91.7278C33.728 91.6549 33.589 91.5775 33.3982 91.4951C33.2072 91.4127 33.0079 91.3536 32.7994 91.3173L25.6664 91.3717C24.9375 91.3717 24.443 91.5454 24.1825 91.8922L24.0783 92.0563C24.0263 92.1477 24 92.2936 24 92.4945C24 92.6953 24.0521 92.9417 24.1563 93.2335C25.1976 95.8072 26.33 98.2892 27.5534 100.68C28.7769 103.071 29.8401 104.997 30.7423 106.456C31.6447 107.916 32.5646 109.295 33.5018 110.59C34.4391 111.886 35.0594 112.717 35.363 113.081C35.6669 113.447 35.9056 113.72 36.0791 113.903L36.7301 114.56C37.1466 114.998 37.7582 115.522 38.5653 116.134C39.3725 116.745 40.2662 117.348 41.2467 117.941C42.2275 118.534 43.3684 119.018 44.6702 119.392C45.9718 119.766 47.2387 119.916 48.471 119.844H51.4648C52.072 119.789 52.532 119.588 52.8447 119.241L52.9483 119.104C53.0179 118.995 53.0831 118.826 53.1433 118.598C53.2042 118.37 53.2345 118.119 53.2345 117.845C53.2167 117.061 53.2735 116.354 53.4034 115.724C53.5331 115.095 53.681 114.62 53.8464 114.3C54.0117 113.981 54.1983 113.712 54.4059 113.493C54.614 113.274 54.7622 113.142 54.8492 113.096C54.9357 113.05 55.0047 113.019 55.0567 113C55.4733 112.854 55.9634 112.996 56.528 113.425C57.0922 113.854 57.6213 114.383 58.1162 115.013C58.6109 115.643 59.2052 116.35 59.8993 117.134C60.5938 117.919 61.2011 118.503 61.7215 118.887L62.242 119.215C62.5896 119.434 63.0408 119.635 63.5963 119.818C64.1508 120 64.6366 120.046 65.0537 119.954L71.7179 119.845C72.377 119.845 72.8899 119.73 73.2538 119.503C73.6183 119.274 73.8349 119.023 73.9047 118.75C73.9744 118.476 73.9781 118.166 73.9179 117.818C73.8562 117.472 73.7954 117.23 73.7348 117.093Z" fill="#4A5A8A"/>
<path d="M281.5 41.1053C287.483 41.1053 292.333 36.3807 292.333 30.5526C292.333 24.7245 287.483 20 281.5 20C275.517 20 270.667 24.7246 270.667 30.5527C270.674 36.3777 275.52 41.0981 281.5 41.1053ZM281.5 24.8704C284.721 24.8704 287.333 27.4144 287.333 30.5527C287.333 33.6909 284.722 36.2349 281.5 36.2349C278.278 36.2349 275.667 33.6909 275.667 30.5527C275.667 27.4144 278.278 24.8704 281.5 24.8704Z" fill="#BCBCBC"/>
<path d="M292.111 46.1056C293.289 45.3502 293.998 44.0695 294 42.6963C294.016 41.5566 293.356 40.5101 292.305 40.0094C291.225 39.4839 289.932 39.6023 288.971 40.3146C284.52 43.4761 278.482 43.4761 274.03 40.3146C273.068 39.606 271.778 39.4878 270.697 40.0094C269.646 40.51 268.986 41.5554 269 42.6946C269.003 44.0676 269.712 45.3479 270.889 46.1039C272.398 47.0819 274.042 47.8471 275.772 48.3768C276.065 48.4656 276.368 48.5478 276.68 48.6236L271.644 53.421C270.322 54.6698 270.29 56.7253 271.572 58.0124C272.854 59.2994 274.964 59.3305 276.286 58.0818C276.313 58.0558 276.34 58.0294 276.367 58.0024L281.5 52.8267L286.643 58.0122C287.924 59.3002 290.034 59.3329 291.357 58.0852C292.679 56.8376 292.713 54.7819 291.432 53.4939C291.405 53.467 291.378 53.4405 291.35 53.4145L286.322 48.6219C286.634 48.544 286.938 48.4612 287.233 48.3736C288.961 47.8459 290.603 47.0823 292.111 46.1056Z" fill="#BCBCBC"/>
<path d="M365.407 56.5228L355.793 46.869C358.265 44.0319 359.619 40.4623 359.619 36.7462C359.619 28.0639 352.303 21 343.31 21C334.317 21 327 28.0639 327 36.7462C327 45.4286 334.317 52.4925 343.31 52.4925C346.686 52.4925 349.903 51.5094 352.654 49.6431L362.341 59.3702C362.746 59.7761 363.29 60 363.874 60C364.426 60 364.95 59.7967 365.348 59.427C366.193 58.6417 366.22 57.3396 365.407 56.5228ZM343.31 25.1077C349.957 25.1077 355.365 30.3286 355.365 36.7462C355.365 43.1639 349.957 48.3848 343.31 48.3848C336.662 48.3848 331.255 43.1639 331.255 36.7462C331.255 30.3286 336.662 25.1077 343.31 25.1077Z" fill="black"/>
<path d="M365.407 121.523L355.793 111.869C358.265 109.032 359.619 105.462 359.619 101.746C359.619 93.0639 352.303 86 343.31 86C334.317 86 327 93.0639 327 101.746C327 110.429 334.317 117.492 343.31 117.492C346.686 117.492 349.903 116.509 352.654 114.643L362.341 124.37C362.746 124.776 363.29 125 363.874 125C364.426 125 364.95 124.797 365.348 124.427C366.193 123.642 366.22 122.34 365.407 121.523ZM343.31 90.1077C349.957 90.1077 355.365 95.3286 355.365 101.746C355.365 108.164 349.957 113.385 343.31 113.385C336.662 113.385 331.255 108.164 331.255 101.746C331.255 95.3286 336.662 90.1077 343.31 90.1077Z" fill="white"/>
<path d="M117.5 86C106.748 86 98 94.7479 98 105.5C98 116.252 106.748 125 117.5 125C128.252 125 137 116.252 137 105.5C137 94.7479 128.252 86 117.5 86ZM117.5 88.4375C126.908 88.4375 134.562 96.0916 134.562 105.5C134.562 109.42 133.22 113.024 130.99 115.908C122.436 111.859 112.564 111.859 104.01 115.908C101.78 113.024 100.438 109.42 100.438 105.5C100.438 96.0916 108.092 88.4375 117.5 88.4375ZM105.72 117.813C113.24 114.483 121.76 114.483 129.28 117.813C126.215 120.748 122.069 122.563 117.5 122.563C112.931 122.563 108.785 120.748 105.72 117.813Z" fill="#B2B2B2"/>
<path d="M117.5 110.375C121.532 110.375 124.813 107.095 124.813 103.062C124.813 99.0301 121.532 95.75 117.5 95.75C113.468 95.75 110.187 99.0301 110.187 103.062C110.187 107.095 113.468 110.375 117.5 110.375ZM117.5 98.1875C120.189 98.1875 122.375 100.374 122.375 103.062C122.375 105.751 120.189 107.937 117.5 107.937C114.811 107.937 112.625 105.751 112.625 103.062C112.625 100.374 114.811 98.1875 117.5 98.1875Z" fill="#B2B2B2"/>
<path d="M168.636 102.614C168.636 102.124 168.24 101.727 167.75 101.727C167.26 101.727 166.864 102.124 166.864 102.614C166.864 104.941 169.431 108.137 169.723 108.494C169.899 108.707 170.154 108.818 170.41 108.818C170.607 108.818 170.806 108.752 170.972 108.617C171.35 108.307 171.404 107.748 171.094 107.369C170.144 106.211 168.636 103.896 168.636 102.614Z" fill="#C7B084"/>
<path d="M187.25 101.727C186.76 101.727 186.364 102.124 186.364 102.614C186.364 103.892 184.856 106.209 183.905 107.37C183.595 107.748 183.651 108.307 184.029 108.617C184.194 108.752 184.393 108.818 184.591 108.818C184.847 108.818 185.101 108.707 185.276 108.494C185.569 108.137 188.136 104.941 188.136 102.614C188.136 102.124 187.74 101.727 187.25 101.727Z" fill="#C7B084"/>
<path d="M177.5 101.727C177.01 101.727 176.614 102.124 176.614 102.614V107.932C176.614 108.422 177.01 108.818 177.5 108.818C177.99 108.818 178.386 108.422 178.386 107.932V102.614C178.386 102.124 177.99 101.727 177.5 101.727Z" fill="#C7B084"/>
<path d="M187.25 87.5455C186.713 87.5455 186.152 87.6165 185.569 87.7248C183.616 85.4491 180.727 84 177.5 84C174.273 84 171.384 85.4491 169.431 87.7247C168.848 87.6165 168.287 87.5454 167.75 87.5454C162.374 87.5455 158 91.9193 158 97.2955C158 100.979 160.077 104.328 163.339 105.984L163.322 119.379C163.321 120.346 163.696 121.255 164.379 121.939C165.063 122.623 165.971 123 166.938 123H188.065C190.06 123 191.682 121.378 191.682 119.384V105.971C194.931 104.311 197 100.967 197 97.2955C197 91.9193 192.626 87.5455 187.25 87.5455ZM189.909 119.384C189.909 120.4 189.082 121.227 188.065 121.227H166.938C166.446 121.227 165.982 121.035 165.634 120.686C165.286 120.338 165.093 119.874 165.094 119.381L165.099 115.909H189.909V119.384ZM190.458 104.592C190.411 104.611 190.367 104.633 190.325 104.66C190.214 104.729 190.122 104.821 190.054 104.926C189.984 105.031 189.938 105.152 189.919 105.282C189.911 105.332 189.908 105.381 189.909 105.431V114.136H165.101L165.113 105.443C165.113 105.395 165.111 105.345 165.104 105.298C165.085 105.164 165.036 105.039 164.964 104.931C164.896 104.829 164.808 104.741 164.7 104.674C164.656 104.646 164.61 104.622 164.561 104.602C161.652 103.33 159.773 100.464 159.773 97.2955C159.773 92.8965 163.351 89.3182 167.75 89.3182C167.922 89.3182 168.103 89.339 168.281 89.353C167.385 90.9116 166.864 92.7126 166.864 94.6364C166.864 95.1263 167.26 95.5228 167.75 95.5228C168.24 95.5228 168.636 95.1263 168.636 94.6364C168.636 89.7492 172.613 85.7727 177.5 85.7727C182.387 85.7727 186.364 89.7492 186.364 94.6364C186.364 95.1263 186.76 95.5228 187.25 95.5228C187.74 95.5228 188.136 95.1263 188.136 94.6364C188.136 92.7126 187.615 90.9116 186.718 89.353C186.897 89.339 187.078 89.3182 187.25 89.3182C191.649 89.3182 195.227 92.8966 195.227 97.2955C195.227 100.453 193.356 103.315 190.458 104.592Z" fill="#C7B084"/>
<path d="M65.491 168.203C64.6827 167.153 64.9139 166.686 65.491 165.747C65.5014 165.736 72.1746 156.252 72.8621 153.036L72.8663 153.034C73.208 151.861 72.8663 151 71.2141 151H65.7473C64.3556 151 63.7139 151.739 63.3701 152.566C63.3701 152.566 60.5867 159.419 56.649 163.861C55.3782 165.145 54.7907 165.556 54.0969 165.556C53.7552 165.556 53.2239 165.145 53.2239 163.973V153.034C53.2239 151.628 52.8343 151 51.6822 151H43.0861C42.2131 151 41.6944 151.656 41.6944 152.266C41.6944 153.599 43.6632 153.906 43.8674 157.656V165.792C43.8674 167.575 43.5528 167.903 42.8548 167.903C40.9964 167.903 36.4858 161.022 33.8128 153.147C33.2732 151.619 32.7461 151.002 31.344 151.002H25.8751C24.3146 151.002 24 151.741 24 152.569C24 154.03 25.8584 161.296 32.642 170.896C37.163 177.449 43.5298 181 49.3217 181C52.8031 181 53.2281 180.211 53.2281 178.855C53.2281 172.594 52.9135 172.002 54.6573 172.002C55.4657 172.002 56.8574 172.414 60.1075 175.574C63.8222 179.322 64.4327 181 66.5119 181H71.9787C73.5371 181 74.3267 180.211 73.8726 178.656C72.8329 175.384 65.8077 168.653 65.491 168.203V168.203Z" fill="#BCBCBC"/>
<path d="M138.876 179.895L135.871 175.244C134.483 173.098 133.75 170.639 133.75 168.136V164.062C133.75 158.919 130.054 154.569 125 153.167V150.25C125 148.458 123.43 147 121.499 147C119.569 147 117.999 148.458 117.999 150.25V153.167C112.945 154.569 109.249 158.919 109.249 164.062V168.136C109.249 170.639 108.516 173.096 107.13 175.243L104.125 179.893C103.962 180.145 103.958 180.457 104.114 180.712C104.27 180.967 104.559 181.125 104.874 181.125H138.125C138.44 181.125 138.731 180.967 138.886 180.714C139.042 180.46 139.037 180.145 138.876 179.895Z" fill="#B2B2B2"/>
<path d="M115.988 182.75C116.976 184.664 119.065 186 121.499 186C123.934 186 126.023 184.664 127.01 182.75H115.988V182.75Z" fill="#B2B2B2"/>
<path d="M237.5 86C226.748 86 218 94.7475 218 105.5C218 116.253 226.748 125 237.5 125C248.253 125 257 116.252 257 105.5C257 94.7475 248.253 86 237.5 86ZM237.5 120.738C229.098 120.738 222.262 113.902 222.262 105.5C222.262 97.0981 229.098 90.2623 237.5 90.2623C245.902 90.2623 252.738 97.0981 252.738 105.5C252.738 113.902 245.902 120.738 237.5 120.738Z" fill="#C7B084"/>
<path d="M239.188 105.523V97.3505C239.188 96.4379 238.448 95.6985 237.536 95.6985C236.624 95.6985 235.884 96.4379 235.884 97.3505V106.051C235.884 106.077 235.891 106.102 235.892 106.127C235.87 106.577 236.025 107.033 236.368 107.376L242.521 113.528C243.166 114.173 244.212 114.173 244.857 113.528C245.502 112.883 245.502 111.837 244.857 111.192L239.188 105.523Z" fill="#C7B084"/>
<path d="M177.334 184V166.212H182.933L183.773 159.277H177.334V154.85C177.334 152.843 177.854 151.475 180.558 151.475L184 151.474V145.271C183.405 145.189 181.361 145 178.983 145C174.017 145 170.617 148.231 170.617 154.164V159.277H165V166.212H170.617V184H177.334Z" fill="#BCBCBC"/>
<path d="M256.608 148.621C254.408 146.298 251.497 145.028 248.389 145.028C245.282 145.028 242.361 146.307 240.162 148.63L239.013 149.843L237.847 148.611C235.648 146.288 232.718 145 229.611 145C226.512 145 223.592 146.279 221.401 148.592C219.202 150.915 217.991 154 218 157.282C218 160.564 219.22 163.639 221.419 165.962L238.141 183.624C238.372 183.868 238.684 184 238.987 184C239.289 184 239.601 183.878 239.833 183.633L256.59 166C258.789 163.677 260 160.592 260 157.31C260.009 154.028 258.807 150.944 256.608 148.621ZM254.898 164.204L238.987 180.944L223.111 164.176C221.366 162.332 220.404 159.887 220.404 157.282C220.404 154.677 221.357 152.232 223.102 150.398C224.838 148.564 227.153 147.549 229.611 147.549C232.077 147.549 234.401 148.564 236.146 150.408L238.159 152.533C238.63 153.031 239.387 153.031 239.859 152.533L241.854 150.426C243.599 148.583 245.923 147.567 248.38 147.567C250.838 147.567 253.153 148.583 254.898 150.417C256.643 152.26 257.596 154.705 257.596 157.31C257.605 159.915 256.643 162.361 254.898 164.204Z" fill="#BCBCBC"/>
<path d="M368.323 158.29C367.653 157.586 366.458 157.494 365.658 158.081L360.409 161.958L357.996 156.699C357.91 156.502 357.78 156.336 357.63 156.19C357.137 155.225 356.281 154.396 355.1 153.916C354.587 153.712 354.058 153.602 353.529 153.548C353.413 153.495 353.307 153.424 353.174 153.388L343.938 151.124C343.42 150.999 342.899 151.08 342.473 151.299C341.966 151.45 341.53 151.774 341.323 152.245L337.845 160.108C337.468 160.964 337.95 161.929 338.926 162.265C339.896 162.596 340.996 162.17 341.375 161.312L344.313 154.672L348.519 155.7C348.416 155.846 348.306 155.983 348.222 156.139L342.83 166.417C342.753 166.568 342.711 166.722 342.656 166.878L336.102 176.54L325.134 179.766C323.893 180.582 323.63 182.12 324.547 183.212C325.47 184.306 327.224 184.537 328.462 183.731L339.685 180.331C340.029 180.112 340.278 179.825 340.466 179.515C340.608 179.383 340.768 179.279 340.877 179.115L344.784 173.355L351.719 178.553L344.299 185.907C343.276 186.921 343.379 188.483 344.537 189.379C345.693 190.283 347.463 190.188 348.491 189.17L357.752 179.995C358.04 179.712 358.212 179.386 358.328 179.045C358.398 178.86 358.398 178.667 358.414 178.475C358.414 178.377 358.456 178.289 358.447 178.199C358.423 177.527 358.112 176.874 357.486 176.408L351.104 171.622C351.564 171.237 351.955 170.779 352.238 170.241L356.372 162.367L357.697 165.469C357.752 165.745 357.857 166.015 358.079 166.242C358.278 166.451 358.533 166.59 358.805 166.688C358.833 166.7 358.866 166.702 358.899 166.71C359.071 166.763 359.246 166.814 359.426 166.822C359.639 166.839 359.855 166.814 360.074 166.761C360.08 166.758 360.082 166.758 360.082 166.758C360.141 166.746 360.199 166.756 360.257 166.734C360.565 166.632 360.8 166.459 361.002 166.256L368.534 160.635C369.335 160.042 368.997 158.995 368.323 158.29Z" fill="#C7B084"/>
<path d="M358.797 154.284C361.712 154.284 364.075 152.206 364.075 149.642C364.075 147.078 361.712 145 358.797 145C355.881 145 353.518 147.078 353.518 149.642C353.518 152.206 355.881 154.284 358.797 154.284Z" fill="#C7B084"/>
</svg>
